HIERARCHY
ROOT Hips
{
	OFFSET 0.00000 0.00000 0.00000
	CHANNELS 6 Xposition Yposition Zposition Zrotation Yrotation Xrotation 
	JOINT LHipJoint
	{
		OFFSET 0 0 0
		CHANNELS 3 Zrotation Yrotation Xrotation
		JOINT LeftUpLeg
		{
			OFFSET 1.53139 -1.83434 0.76626
			CHANNELS 3 Zrotation Yrotation Xrotation
			JOINT LeftLeg
			{
				OFFSET 2.56112 -7.03663 0.00000
				CHANNELS 3 Zrotation Yrotation Xrotation
				JOINT LeftFoot
				{
					OFFSET 2.59983 -7.14299 0.00000
					CHANNELS 3 Zrotation Yrotation Xrotation
					JOINT LeftToeBase
					{
						OFFSET 0.13742 -0.37757 2.00054
						CHANNELS 3 Zrotation Yrotation Xrotation
						End Site
						{
							OFFSET 0.00000 -0.00000 1.02897
						}
					}
				}
			}
		}
	}
	JOINT RHipJoint
	{
		OFFSET 0 0 0
		CHANNELS 3 Zrotation Yrotation Xrotation
		JOINT RightUpLeg
		{
			OFFSET -1.40122 -1.83435 0.76627
			CHANNELS 3 Zrotation Yrotation Xrotation
			JOINT RightLeg
			{
				OFFSET -2.54052 -6.98003 0.00000
				CHANNELS 3 Zrotation Yrotation Xrotation
				JOINT RightFoot
				{
					OFFSET -2.63179 -7.23079 0.00000
					CHANNELS 3 Zrotation Yrotation Xrotation
					JOINT RightToeBase
					{
						OFFSET -0.24131 -0.66299 2.03908
						CHANNELS 3 Zrotation Yrotation Xrotation
						End Site
						{
							OFFSET -0.00000 -0.00000 1.07391
						}
					}
				}
			}
		}
	}
	JOINT LowerBack
	{
		OFFSET 0 0 0
		CHANNELS 3 Zrotation Yrotation Xrotation
		JOINT Spine
		{
			OFFSET 0.01174 2.10302 -0.29778
			CHANNELS 3 Zrotation Yrotation Xrotation
			JOINT Spine1
			{
				OFFSET 0.00772 2.13227 -0.01247
				CHANNELS 3 Zrotation Yrotation Xrotation
				JOINT Neck
				{
					OFFSET 0 0 0
					CHANNELS 3 Zrotation Yrotation Xrotation
					JOINT Neck1
					{
						OFFSET -0.09219 1.60848 0.31481
						CHANNELS 3 Zrotation Yrotation Xrotation
						JOINT Head
						{
							OFFSET 0.13974 1.65456 -0.31134
							CHANNELS 3 Zrotation Yrotation Xrotation
							End Site
							{
								OFFSET 0.04742 1.69515 -0.14578
							}
						}
					}
				}
				JOINT LeftShoulder
				{
					OFFSET 0 0 0
					CHANNELS 3 Zrotation Yrotation Xrotation
					JOINT LeftArm
					{
						OFFSET 3.24909 1.02882 -0.23993
						CHANNELS 3 Zrotation Yrotation Xrotation
						JOINT LeftForeArm
						{
							OFFSET 5.32955 -0.00000 -0.00000
							CHANNELS 3 Zrotation Yrotation Xrotation
							JOINT LeftHand
							{
								OFFSET 3.69232 -0.00000 -0.00000
								CHANNELS 3 Zrotation Yrotation Xrotation
								JOINT LeftFingerBase
								{
									OFFSET 0 0 0
									CHANNELS 3 Zrotation Yrotation Xrotation
									JOINT LeftHandIndex1
									{
										OFFSET 0.53660 -0.00000 -0.00000
										CHANNELS 3 Zrotation Yrotation Xrotation
										End Site
										{
											OFFSET 0.43262 -0.00000 -0.00000
										}
									}
								}
								JOINT LThumb
								{
									OFFSET 0 0 0
									CHANNELS 3 Zrotation Yrotation Xrotation
									End Site
									{
										OFFSET 0.43922 -0.00000 0.43922
									}
								}
							}
						}
					}
				}
				JOINT RightShoulder
				{
					OFFSET 0 0 0
					CHANNELS 3 Zrotation Yrotation Xrotation
					JOINT RightArm
					{
						OFFSET -3.21387 0.93002 -0.34594
						CHANNELS 3 Zrotation Yrotation Xrotation
						JOINT RightForeArm
						{
							OFFSET -5.23431 -0.00000 0.00000
							CHANNELS 3 Zrotation Yrotation Xrotation
							JOINT RightHand
							{
								OFFSET -3.55301 -0.00000 -0.00000
								CHANNELS 3 Zrotation Yrotation Xrotation
								JOINT RightFingerBase
								{
									OFFSET 0 0 0
									CHANNELS 3 Zrotation Yrotation Xrotation
									JOINT RightHandIndex1
									{
										OFFSET -0.77252 -0.00000 -0.00000
										CHANNELS 3 Zrotation Yrotation Xrotation
										End Site
										{
											OFFSET -0.62283 -0.00000 -0.00000
										}
									}
								}
								JOINT RThumb
								{
									OFFSET 0 0 0
									CHANNELS 3 Zrotation Yrotation Xrotation
									End Site
									{
										OFFSET -0.63234 -0.00000 0.63234
									}
								}
							}
						}
					}
				}
			}
		}
	}
}
MOTION
Frames: 13
Frame Time: .0083333
0.0189 18.1053 0.3149 180.1090 1.1814 178.3980 0.0000 0.0000 0.0000 -22.2741 -2.1263 2.0898 0.5715 4.8414 13.4568 0.2387 0.2349 -9.3156 0.0054 0.4739 1.3022 0.0000 0.0000 0.0000 22.8646 1.1508 -2.8555 -1.4172 -7.5289 21.2920 -0.5864 4.2287 -13.6465 -0.0715 -1.7246 4.7452 -1.6436 0.8547 8.0916 0.1214 1.0330 0.3054 0.9283 0.5630 -4.2531 -12.2465 -4.9156 -21.6614 8.9790 -7.0175 29.4288 4.3223 -3.6578 14.5419 0.0000 -0.0000 0.0000 -88.5742 7.1361 20.5074 18.2957 -28.5342 -4.6896 -0.0000 -0.0000 3.2538 20.8408 23.1616 8.5157 -7.1250 0.0000 -0.0000 -8.7680 54.3628 -2.0291 0.0000 -0.0000 0.0000 90.7836 -3.6270 17.1052 -15.0323 24.1910 -3.2392 0.0000 0.0000 8.3830 -14.6352 7.9787 -2.0759 7.1250 -0.0000 -0.0000 8.8494 -21.7727 4.9942
0.0274 18.1086 0.3201 180.0920 1.1829 178.4420 0.0000 0.0000 0.0000 -22.2557 -2.1340 2.0291 0.5695 4.8332 13.4335 0.2365 0.2354 -9.2735 0.0042 0.4195 1.1526 0.0000 0.0000 0.0000 22.8821 1.2031 -2.9508 -1.4245 -7.5473 21.3474 -0.5859 4.1885 -13.6433 -0.0684 -1.6875 4.6427 -1.7136 0.8376 8.0927 0.1312 1.0046 0.3123 0.9812 0.5504 -4.2471 -12.3063 -4.8984 -21.6984 9.0491 -6.9943 29.4581 4.3676 -3.6461 14.5656 -0.0000 -0.0000 0.0000 -88.5840 7.0891 20.4362 18.3015 -28.5416 -4.6924 -0.0000 -0.0000 3.2137 20.9124 23.0481 8.5082 -7.1250 0.0000 -0.0000 -8.6499 54.2601 -1.9797 -0.0000 -0.0000 0.0000 90.7976 -3.5883 17.1909 -15.0532 24.2202 -3.2478 0.0000 0.0000 8.2911 -14.6298 7.8564 -2.0435 7.1250 -0.0000 -0.0000 8.8578 -21.8976 4.9735
0.0341 18.1091 0.3234 179.9970 1.1218 178.4590 0.0000 0.0000 0.0000 -22.3247 -2.1505 1.9845 0.5700 4.8352 13.4392 0.2358 0.1753 -9.2371 0.0043 0.4243 1.1659 0.0000 0.0000 0.0000 22.8095 1.1913 -3.0056 -1.4294 -7.5598 21.3847 -0.5899 4.1966 -13.6902 -0.0621 -1.6080 4.4236 -1.8524 0.8100 8.1232 0.1178 0.9538 0.3026 1.0508 0.5282 -4.2748 -12.3465 -4.8798 -21.7478 9.1127 -6.9843 29.5356 4.4052 -3.6420 14.6142 -0.0000 -0.0000 0.0000 -88.5892 7.0459 20.3377 18.2540 -28.4811 -4.6697 -0.0000 -0.0000 3.3130 20.9296 23.0193 8.5059 -7.1250 0.0000 -0.0000 -8.6210 54.2339 -1.9675 -0.0000 -0.0000 0.0000 90.8329 -3.5633 17.1547 -15.0485 24.2136 -3.2458 0.0000 0.0000 8.3229 -14.5413 7.6871 -1.9872 7.1250 -0.0000 -0.0000 8.9285 -22.0737 4.9780
0.0394 18.1053 0.3249 179.9710 1.0865 178.4350 0.0000 0.0000 0.0000 -22.3341 -2.1853 2.0030 0.5723 4.8445 13.4657 0.2394 0.1590 -9.3012 0.0056 0.4839 1.3297 0.0000 0.0000 0.0000 22.8111 1.1773 -2.9869 -1.4319 -7.5662 21.4041 -0.5944 4.1851 -13.7434 -0.0600 -1.5805 4.3478 -1.8991 0.7912 8.1533 0.1075 0.9240 0.3105 1.0696 0.5146 -4.2831 -12.3405 -4.8735 -21.7668 9.1376 -6.9996 29.5949 4.4130 -3.6486 14.6477 0.0000 -0.0000 0.0000 -88.5546 7.0412 20.3092 18.2336 -28.4552 -4.6600 -0.0000 -0.0000 3.3155 20.9241 23.1124 8.5355 -7.1250 0.0000 -0.0000 -8.6631 54.3284 -1.9972 0.0000 -0.0000 0.0000 90.8686 -3.5717 17.1671 -15.0594 24.2288 -3.2503 0.0000 0.0000 8.3379 -14.5362 7.6142 -1.9677 7.1250 -0.0000 -0.0000 8.9352 -22.1483 4.9664
0.0450 18.1022 0.3266 179.9610 1.0747 178.4120 0.0000 0.0000 0.0000 -22.3357 -2.2765 2.0496 0.5749 4.8554 13.4967 0.2415 0.2312 -9.3693 0.0082 0.5832 1.6025 0.0000 0.0000 0.0000 22.8268 1.1624 -2.9707 -1.4329 -7.5686 21.4114 -0.5967 4.1592 -13.7716 -0.0571 -1.5425 4.2428 -1.9067 0.7582 8.1675 0.0941 0.8794 0.3244 1.0651 0.4927 -4.2750 -12.3453 -4.8659 -21.7222 9.1510 -6.9953 29.5648 4.4196 -3.6464 14.6246 -0.0000 -0.0000 0.0000 -88.5138 7.0478 20.2520 18.2398 -28.4632 -4.6630 -0.0000 -0.0000 3.2778 20.9162 23.2337 8.5737 -7.1250 0.0000 -0.0000 -8.7189 54.4513 -2.0365 -0.0000 -0.0000 0.0000 90.8486 -3.6050 17.4544 -15.0807 24.2584 -3.2590 0.0000 0.0000 8.1885 -14.6475 7.6138 -1.9834 7.1250 -0.0000 -0.0000 8.8544 -22.1443 4.9212
0.0508 18.1031 0.3296 179.9500 1.0754 178.4060 0.0000 0.0000 0.0000 -22.3298 -2.2986 2.0090 0.5802 4.8774 13.5591 0.2390 0.2739 -9.3367 0.0080 0.5765 1.5843 0.0000 0.0000 0.0000 22.8408 1.1813 -2.9607 -1.4316 -7.5654 21.4016 -0.5959 4.1351 -13.7643 -0.0633 -1.6239 4.4673 -1.9168 0.7388 8.2221 0.0983 0.8515 0.3133 1.0777 0.4795 -4.3165 -12.3846 -4.8795 -21.6479 9.1334 -6.9953 29.5054 4.4175 -3.6527 14.5829 -0.0000 0.0000 0.0000 -88.5308 7.0662 20.1583 18.2353 -28.4574 -4.6608 -0.0000 -0.0000 3.2909 20.9627 23.0558 8.5329 -7.1250 0.0000 -0.0000 -8.6013 54.2778 -1.9722 -0.0000 0.0000 0.0000 90.7990 -3.6513 17.7461 -15.0842 24.2633 -3.2605 0.0000 0.0000 7.9721 -14.7620 7.6567 -2.0107 7.1250 -0.0000 -0.0000 8.7697 -22.0960 4.8828
0.0574 18.1071 0.3339 179.9960 1.0870 178.3650 0.0000 0.0000 0.0000 -22.2529 -2.3034 1.9954 0.5864 4.9029 13.6317 0.2386 0.2783 -9.3302 0.0073 0.5500 1.5112 0.0000 0.0000 0.0000 22.9253 1.2271 -2.9162 -1.4286 -7.5578 21.3789 -0.5898 4.0774 -13.6948 -0.0655 -1.6508 4.5414 -1.8576 0.7413 8.3499 0.0989 0.8585 0.3070 1.0427 0.4828 -4.3941 -12.4438 -4.8824 -21.5397 9.1853 -7.0043 29.4410 4.4465 -3.6582 14.5370 0.0000 -0.0000 0.0000 -88.4977 7.0841 20.0911 18.2288 -28.4492 -4.6577 -0.0000 -0.0000 3.4202 20.9483 22.9926 8.5048 -7.1250 0.0000 -0.0000 -8.5915 54.2100 -1.9557 0.0000 -0.0000 0.0000 90.8690 -3.6156 17.6997 -15.0377 24.1986 -3.2414 0.0000 0.0000 8.0772 -14.8023 7.6785 -2.0222 7.1250 -0.0000 -0.0000 8.7396 -22.0720 4.8705
0.0660 18.1059 0.3362 180.0500 1.1027 178.2800 0.0000 0.0000 0.0000 -22.1656 -2.2956 2.0417 0.5933 4.9311 13.7122 0.2416 0.2824 -9.3907 0.0075 0.5578 1.5329 0.0000 0.0000 0.0000 23.0353 1.3002 -2.7850 -1.4223 -7.5418 21.3307 -0.5827 3.9332 -13.6184 -0.0651 -1.6456 4.5272 -1.7972 0.7595 8.4326 0.0857 0.8892 0.3532 0.9906 0.4974 -4.3922 -12.4494 -4.8528 -21.4505 9.2462 -6.9859 29.3843 4.4756 -3.6442 14.4924 -0.0000 -0.0000 0.0000 -88.4067 7.0750 20.1470 18.2418 -28.4657 -4.6639 -0.0000 -0.0000 3.4665 21.0170 22.9252 8.5117 -7.1250 0.0000 -0.0000 -8.4949 54.1541 -1.9218 -0.0000 -0.0000 0.0000 91.0226 -3.5190 17.4989 -15.0204 24.1745 -3.2343 0.0000 0.0000 8.2987 -14.8137 7.6852 -2.0256 7.1250 -0.0000 -0.0000 8.7312 -22.0648 4.8672
0.0740 18.1028 0.3375 180.0950 1.0891 178.2360 0.0000 0.0000 0.0000 -22.0905 -2.3267 2.0593 0.5982 4.9513 13.7696 0.2436 0.2857 -9.4297 0.0100 0.6450 1.7724 0.0000 0.0000 0.0000 23.1258 1.2871 -2.7118 -1.4160 -7.5258 21.2829 -0.5786 3.8496 -13.5745 -0.0573 -1.5443 4.2479 -1.7794 0.7463 8.4650 0.0945 0.8753 0.3928 0.9913 0.4906 -4.3685 -12.2965 -4.8080 -21.3695 9.0714 -6.8996 29.2703 4.3899 -3.6072 14.3968 -0.0000 0.0000 0.0000 -88.3973 7.0415 20.0049 18.2359 -28.4582 -4.6611 -0.0000 -0.0000 3.5836 20.9391 22.7687 8.4236 -7.1250 0.0000 -0.0000 -8.5146 53.9781 -1.8897 -0.0000 0.0000 0.0000 91.1104 -3.4191 17.4878 -15.0096 24.1594 -3.2299 0.0000 0.0000 8.4246 -14.8331 7.6557 -2.0206 7.1250 -0.0000 -0.0000 8.7181 -22.0940 4.8539
0.0805 18.1035 0.3361 180.1550 1.1285 178.2090 0.0000 0.0000 0.0000 -22.0134 -2.3382 2.0871 0.6015 4.9648 13.8082 0.2450 0.3259 -9.4727 0.0108 0.6697 1.8403 0.0000 0.0000 0.0000 23.2095 1.2485 -2.6691 -1.4133 -7.5188 21.2617 -0.5788 3.9352 -13.5719 -0.0578 -1.5508 4.2658 -1.7423 0.7410 8.4966 0.1058 0.8722 0.3967 0.9821 0.4886 -4.3817 -12.2017 -4.7614 -21.3095 8.9849 -6.8461 29.2628 4.3474 -3.5874 14.3644 0.0000 -0.0000 0.0000 -88.3889 7.0685 19.8294 18.2495 -28.4754 -4.6676 -0.0000 -0.0000 3.6817 20.7149 22.8269 8.3462 -7.1250 0.0000 -0.0000 -8.7662 53.9950 -1.9498 0.0000 -0.0000 0.0000 91.1413 -3.4222 17.6882 -15.0123 24.1632 -3.2310 0.0000 0.0000 8.3298 -14.8660 7.6393 -2.0210 7.1250 -0.0000 -0.0000 8.6949 -22.1095 4.8375
0.0874 18.1043 0.3349 180.1020 1.1485 178.1980 0.0000 0.0000 0.0000 -22.0615 -2.3533 2.0902 0.6064 4.9843 13.8638 0.2464 0.3655 -9.5148 0.0118 0.7028 1.9313 0.0000 0.0000 0.0000 23.1650 1.1864 -2.6596 -1.4120 -7.5156 21.2522 -0.5793 4.0452 -13.5711 -0.0584 -1.5595 4.2899 -1.8262 0.7461 8.4656 0.0959 0.8727 0.4307 1.0196 0.4904 -4.3300 -12.2773 -4.7648 -21.3274 9.0781 -6.8644 29.3037 4.3970 -3.5944 14.3964 -0.0000 0.0000 0.0000 -88.3954 7.0433 19.7211 18.2688 -28.5000 -4.6768 -0.0000 -0.0000 3.7797 20.6820 22.9908 8.3878 -7.1250 0.0000 -0.0000 -8.8637 54.1568 -2.0068 -0.0000 0.0000 0.0000 91.1365 -3.4004 17.9002 -15.0124 24.1634 -3.2310 0.0000 0.0000 8.2552 -14.8956 7.8238 -2.0738 7.1250 -0.0000 -0.0000 8.6666 -21.9198 4.8593
0.0951 18.1025 0.3375 179.9140 1.1285 178.2090 0.0000 0.0000 0.0000 -22.2619 -2.4640 2.0535 0.6155 5.0209 13.9683 0.2479 0.4178 -9.5641 0.0117 0.6981 1.9185 0.0000 0.0000 0.0000 22.9896 1.2219 -2.6439 -1.4088 -7.5075 21.2280 -0.5773 3.9621 -13.5524 -0.0571 -1.5423 4.2424 -2.0497 0.7672 8.4184 0.0605 0.8820 0.4872 1.1084 0.4991 -4.2479 -12.4071 -4.8052 -21.3503 9.1955 -6.8989 29.2508 4.4611 -3.6035 14.3946 -0.0000 0.0000 0.0000 -88.4343 6.9815 19.5063 18.3381 -28.5879 -4.7099 -0.0000 -0.0000 4.2347 20.5489 23.0529 8.3507 -7.1250 0.0000 -0.0000 -9.0245 54.1950 -2.0521 -0.0000 0.0000 0.0000 91.1126 -3.3091 17.9933 -14.9866 24.1275 -3.2205 0.0000 0.0000 8.2449 -14.8919 8.1210 -2.1514 7.1250 -0.0000 -0.0000 8.6588 -21.6165 4.9152
0.1036 18.1029 0.3443 179.9300 1.1757 178.3000 0.0000 0.0000 0.0000 -22.2220 -2.6150 1.8961 0.6282 5.0717 14.1131 0.2512 0.4891 -9.6577 0.0110 0.6776 1.8621 0.0000 0.0000 0.0000 23.0600 1.3805 -2.7025 -1.4035 -7.4939 21.1872 -0.5709 3.8479 -13.4828 -0.0567 -1.5361 4.2253 -2.0274 0.8077 8.3948 0.0500 0.9377 0.4809 1.0784 0.5259 -4.2426 -12.4764 -4.8320 -21.2900 9.2832 -6.9324 29.1509 4.5011 -3.6105 14.3497 0.0000 0.0000 0.0000 -88.4022 6.9089 19.3817 18.3546 -28.6088 -4.7178 -0.0000 -0.0000 4.5934 20.4038 23.0991 8.3028 -7.1250 0.0000 -0.0000 -9.1913 54.2142 -2.0949 0.0000 0.0000 0.0000 91.1306 -3.2915 18.1241 -15.0123 24.1633 -3.2310 0.0000 0.0000 8.1442 -14.8881 8.2668 -2.1891 7.1250 -0.0000 -0.0000 8.6566 -21.4677 4.9434
